<svg width="640" height="400" viewBox="0 0 640 400" fill="none" xmlns="http://www.w3.org/2000/svg">
  <circle cx="96" cy="84" r="70" fill="white" fill-opacity=".08"/>
  <circle cx="526" cy="112" r="60" fill="white" fill-opacity=".08"/>
  <path d="M320 318c0-79 10-148 30-206" stroke="white" stroke-width="18" stroke-linecap="round"/>
  <path d="M330 184c-6-37-31-66-71-84-8 55 12 99 60 128m21 0c-2-41 15-79 55-112 18 56 7 103-35 140m-34 2c-29-12-61-11-96 4 29 38 66 53 112 46m34-2c28-12 59-9 93 10-31 33-67 44-108 36" stroke="white" stroke-width="16" stroke-linecap="round" stroke-linejoin="round"/>
</svg>
