<svg width="640" height="400" viewBox="0 0 640 400" fill="none" xmlns="http://www.w3.org/2000/svg">
  <circle cx="114" cy="86" r="76" fill="white" fill-opacity=".09"/>
  <circle cx="534" cy="300" r="82" fill="white" fill-opacity=".06"/>
  <path d="M318 92c83 0 150 59 150 132 0 45-31 82-70 82h-18c-11 0-20 8-20 18 0 10 9 18 20 18 0 26-21 46-47 46-78 0-155-71-155-168 0-70 63-128 140-128Z" fill="white" fill-opacity=".16"/>
  <circle cx="260" cy="154" r="20" fill="white"/>
  <circle cx="220" cy="216" r="18" fill="white"/>
  <circle cx="282" cy="250" r="16" fill="white"/>
  <circle cx="342" cy="156" r="20" fill="white"/>
  <path d="m420 126 54 54M392 152l18-18m52 52 18-18" stroke="white" stroke-width="18" stroke-linecap="round"/>
</svg>
