<svg width="640" height="400" viewBox="0 0 640 400" fill="none" xmlns="http://www.w3.org/2000/svg">
  <circle cx="122" cy="112" r="78" fill="white" fill-opacity=".10"/>
  <circle cx="548" cy="86" r="64" fill="white" fill-opacity=".08"/>
  <rect x="196" y="88" width="248" height="224" rx="34" fill="white" fill-opacity=".16"/>
  <path d="M242 140h42v114h-26v-88l-16 9v-21l26-14Zm82 84c0-21 9-34 43-56 18-11 23-17 23-26 0-8-6-14-18-14-13 0-20 6-21 19h-27c2-29 22-43 49-43 29 0 46 15 46 37 0 18-9 31-31 44-25 15-35 24-36 35h69v24h-97v-20Z" fill="white"/>
</svg>
