<svg width="640" height="400" viewBox="0 0 640 400" fill="none" xmlns="http://www.w3.org/2000/svg">
  <circle cx="92" cy="98" r="66" fill="white" fill-opacity=".08"/>
  <circle cx="552" cy="94" r="56" fill="white" fill-opacity=".08"/>
  <circle cx="518" cy="316" r="74" fill="white" fill-opacity=".06"/>
  <path d="M280 110h80m-24 0v62l73 114c13 21-2 48-27 48H258c-25 0-40-27-27-48l73-114v-62" stroke="white" stroke-width="20" stroke-linecap="round" stroke-linejoin="round"/>
  <path d="M262 254c22 10 43 15 62 15 27 0 45-10 56-15 13-6 24-6 42 0" stroke="white" stroke-width="18" stroke-linecap="round"/>
  <circle cx="303" cy="235" r="10" fill="white"/>
  <circle cx="355" cy="222" r="12" fill="white"/>
  <circle cx="334" cy="273" r="8" fill="white"/>
</svg>
